<svg width="543" height="72" viewBox="0 0 543 72" fill="none" xmlns="http://www.w3.org/2000/svg">
<path d="M553 32.5L-20 32.5M553 32.5C553 -109.713 424.73 -225 266.5 -225M553 32.5C553 174.713 424.73 290 266.5 290M553 32.5L553 290L266.5 290M553 32.5L553 -225L266.5 -225M-20 32.5C-20 174.713 108.271 290 266.5 290M-20 32.5C-20 -109.713 108.271 -225 266.5 -225M-20 32.5L-20 -225L266.5 -225M-20 32.5L-20 290L266.5 290M266.5 -225L266.5 290M553 118.333L-20 118.333M553 -53.3333L266.5 -53.3333L-20 -53.3334M553 -96.25L-20 -96.25M553 -182.083L-20 -182.083M123.25 -225L123.25 32.5L123.25 290M27.7501 -225L27.7501 290M409.75 -225L409.75 290M505.25 -225L505.25 290M27.7501 -182.083L505.25 247.083M27.7501 247.083L505.25 -182.083M529.125 290C515.939 290 505.25 280.393 505.25 268.542C505.25 256.691 515.939 247.083 529.125 247.083C542.311 247.083 553 256.691 553 268.542C553 280.393 542.311 290 529.125 290ZM3.87498 290C-9.31091 290 -20 280.393 -20 268.542C-20 256.691 -9.31091 247.083 3.87498 247.083C17.0609 247.083 27.7501 256.691 27.7501 268.542C27.7501 280.393 17.0609 290 3.87498 290ZM529.125 -182.083C515.939 -182.083 505.25 -191.691 505.25 -203.542C505.25 -215.393 515.939 -225 529.125 -225C542.311 -225 553 -215.393 553 -203.542C553 -191.691 542.311 -182.083 529.125 -182.083ZM3.87499 -182.083C-9.3109 -182.083 -20 -191.691 -20 -203.542C-20 -215.393 -9.3109 -225 3.87499 -225C17.0609 -225 27.7501 -215.393 27.7501 -203.542C27.7501 -191.691 17.0609 -182.083 3.87499 -182.083Z" stroke="white" stroke-opacity="0.05"/>
</svg>

